<svg xmlns="http://www.w3.org/2000/svg" fill="none" viewBox="-18 16.78 717.5 190.3">
<circle cx="132.5" cy="117.273" r="77.5" fill="white"/>
<rect x="155.716" y="34.0188" width="30.4317" height="15.8413" rx="2" transform="rotate(29.1471 155.716 34.0188)" fill="white"/>
<path d="M169 43.7957L175.016 37.421C176.855 35.5192 188.545 28.5755 197.841 31.405C204.349 33.3855 206.047 35.9978 206.177 37.4653M206.177 37.4653L216.369 23.2838M206.177 37.4653L197.841 48M206.177 37.4653L216.369 45.5" stroke="white" stroke-width="13"/>
<mask id="path-4-inside-1_4_4" fill="white">
<path d="M38.8315 184.437C27.8528 178.116 18.591 169.2 11.8568 158.47C5.12267 147.74 1.12152 135.523 0.20368 122.888C-0.714162 110.253 1.47928 97.5858 6.59199 85.9951C11.7047 74.4044 19.5808 64.2437 29.5307 56.4026L40.1886 69.9269C32.4493 76.0259 26.3232 83.929 22.3464 92.9445C18.3697 101.96 16.6636 111.813 17.3775 121.64C18.0914 131.468 21.2036 140.971 26.4415 149.317C31.6795 157.663 38.8835 164.598 47.4229 169.514L38.8315 184.437Z"/>
</mask>
<path d="M38.8315 184.437C27.8528 178.116 18.591 169.2 11.8568 158.47C5.12267 147.74 1.12152 135.523 0.20368 122.888C-0.714162 110.253 1.47928 97.5858 6.59199 85.9951C11.7047 74.4044 19.5808 64.2437 29.5307 56.4026L40.1886 69.9269C32.4493 76.0259 26.3232 83.929 22.3464 92.9445C18.3697 101.96 16.6636 111.813 17.3775 121.64C18.0914 131.468 21.2036 140.971 26.4415 149.317C31.6795 157.663 38.8835 164.598 47.4229 169.514L38.8315 184.437Z" fill="#D9D9D9" stroke="white" stroke-width="36" mask="url(#path-4-inside-1_4_4)"/>
<mask id="path-5-inside-2_4_4" fill="white">
<path d="M233.591 53.7728C244.57 60.0936 253.832 69.0093 260.566 79.7394C267.3 90.4695 271.301 102.687 272.219 115.322C273.137 127.957 270.944 140.624 265.831 152.215C260.718 163.805 252.842 173.966 242.892 181.807L232.234 168.283C239.974 162.184 246.1 154.281 250.077 145.265C254.053 136.25 255.759 126.397 255.045 116.569C254.332 106.742 251.219 97.2388 245.981 88.8927C240.743 80.5466 233.539 73.6118 225 68.6954L233.591 53.7728Z"/>
</mask>
<path d="M233.591 53.7728C244.57 60.0936 253.832 69.0093 260.566 79.7394C267.3 90.4695 271.301 102.687 272.219 115.322C273.137 127.957 270.944 140.624 265.831 152.215C260.718 163.805 252.842 173.966 242.892 181.807L232.234 168.283C239.974 162.184 246.1 154.281 250.077 145.265C254.053 136.25 255.759 126.397 255.045 116.569C254.332 106.742 251.219 97.2388 245.981 88.8927C240.743 80.5466 233.539 73.6118 225 68.6954L233.591 53.7728Z" fill="white"/>
<path d="M233.591 53.7728L242.573 38.1735L226.973 29.1924L217.992 44.7918L233.591 53.7728ZM242.892 181.807L228.755 192.948L239.896 207.086L254.034 195.945L242.892 181.807ZM232.234 168.283L221.093 154.145L206.956 165.287L218.097 179.424L232.234 168.283ZM225 68.6954L209.401 59.7143L200.42 75.3137L216.019 84.2948L225 68.6954ZM233.591 53.7728L224.61 69.3722C233.039 74.225 240.15 81.0699 245.32 89.3078L260.566 79.7394L275.812 70.171C267.514 56.9487 256.101 45.9623 242.573 38.1735L233.591 53.7728ZM260.566 79.7394L245.32 89.3078C250.49 97.5458 253.562 106.925 254.267 116.626L272.219 115.322L290.172 114.018C289.041 98.448 284.111 83.3932 275.812 70.171L260.566 79.7394ZM272.219 115.322L254.267 116.626C254.971 126.326 253.287 136.051 249.362 144.95L265.831 152.215L282.3 159.479C288.6 145.196 291.303 129.587 290.172 114.018L272.219 115.322ZM265.831 152.215L249.362 144.95C245.437 153.849 239.39 161.65 231.751 167.669L242.892 181.807L254.034 195.945C266.294 186.282 276 173.762 282.3 159.479L265.831 152.215ZM242.892 181.807L257.03 170.666L246.372 157.142L232.234 168.283L218.097 179.424L228.755 192.948L242.892 181.807ZM232.234 168.283L243.376 182.42C253.426 174.5 261.381 164.237 266.545 152.53L250.077 145.265L233.608 138.001C230.818 144.324 226.521 149.867 221.093 154.145L232.234 168.283ZM250.077 145.265L266.545 152.53C271.71 140.822 273.925 128.027 272.998 115.265L255.045 116.569L237.093 117.873C237.594 124.767 236.397 131.677 233.608 138.001L250.077 145.265ZM255.045 116.569L272.998 115.265C272.071 102.503 268.03 90.1625 261.228 79.3243L245.981 88.8927L230.735 98.4611C234.409 104.315 236.592 110.98 237.093 117.873L255.045 116.569ZM245.981 88.8927L261.228 79.3243C254.426 68.486 245.07 59.4805 233.981 53.096L225 68.6954L216.019 84.2948C222.009 87.7432 227.061 92.6072 230.735 98.4611L245.981 88.8927ZM225 68.6954L240.599 77.6765L249.191 62.7539L233.591 53.7728L217.992 44.7918L209.401 59.7143L225 68.6954Z" fill="white" mask="url(#path-5-inside-2_4_4)"/>
<path d="M306.825 102V58.8H327.345C330.545 58.8 333.285 59.36 335.565 60.48C337.885 61.6 339.665 63.16 340.905 65.16C342.185 67.16 342.825 69.5 342.825 72.18C342.825 74.86 342.185 77.22 340.905 79.26C339.625 81.3 337.825 82.9 335.505 84.06C333.225 85.18 330.505 85.74 327.345 85.74H314.145V78.66H326.865C328.985 78.66 330.625 78.08 331.785 76.92C332.985 75.72 333.585 74.16 333.585 72.24C333.585 70.32 332.985 68.78 331.785 67.62C330.625 66.46 328.985 65.88 326.865 65.88H316.065V102H306.825ZM346.897 102V58.8H366.217C369.337 58.8 372.057 59.34 374.377 60.42C376.697 61.46 378.497 62.94 379.777 64.86C381.057 66.78 381.697 69.02 381.697 71.58C381.697 74.1 381.057 76.32 379.777 78.24C378.497 80.12 376.697 81.6 374.377 82.68C372.057 83.72 369.337 84.24 366.217 84.24H354.217V77.46H365.977C368.177 77.46 369.857 76.96 371.017 75.96C372.217 74.92 372.817 73.48 372.817 71.64C372.817 69.76 372.237 68.34 371.077 67.38C369.917 66.38 368.217 65.88 365.977 65.88H356.137V102H346.897ZM371.257 102L353.917 79.56H363.697L383.737 102H371.257ZM407.452 102.6C404.252 102.6 401.292 102.06 398.572 100.98C395.892 99.9 393.552 98.38 391.552 96.42C389.592 94.42 388.052 92.06 386.932 89.34C385.852 86.58 385.312 83.54 385.312 80.22C385.312 75.82 386.252 71.98 388.132 68.7C390.012 65.38 392.612 62.8 395.932 60.96C399.292 59.12 403.112 58.2 407.392 58.2C411.752 58.2 415.592 59.12 418.912 60.96C422.232 62.8 424.832 65.38 426.712 68.7C428.632 72.02 429.592 75.88 429.592 80.28C429.592 83.56 429.032 86.58 427.912 89.34C426.832 92.06 425.292 94.42 423.292 96.42C421.332 98.38 418.992 99.9 416.272 100.98C413.592 102.06 410.652 102.6 407.452 102.6ZM407.392 95.28C409.912 95.28 412.132 94.64 414.052 93.36C415.972 92.08 417.472 90.32 418.552 88.08C419.672 85.8 420.232 83.16 420.232 80.16C420.232 77.2 419.692 74.62 418.612 72.42C417.532 70.22 416.032 68.52 414.112 67.32C412.192 66.12 409.952 65.52 407.392 65.52C404.872 65.52 402.652 66.12 400.732 67.32C398.812 68.52 397.312 70.22 396.232 72.42C395.192 74.58 394.672 77.16 394.672 80.16C394.672 83.2 395.212 85.86 396.292 88.14C397.372 90.38 398.872 92.14 400.792 93.42C402.712 94.66 404.912 95.28 407.392 95.28ZM441.943 102V95.4H453.103C455.103 95.4 456.603 94.86 457.603 93.78C458.643 92.66 459.163 91.12 459.163 89.16C459.163 87.16 458.603 85.58 457.483 84.42C456.403 83.26 454.843 82.68 452.803 82.68H441.943V76.08H452.323C454.203 76.08 455.623 75.64 456.583 74.76C457.583 73.84 458.083 72.5 458.083 70.74C458.083 68.98 457.603 67.66 456.643 66.78C455.723 65.86 454.343 65.4 452.503 65.4H441.943V58.8H454.483C458.323 58.8 461.423 59.78 463.783 61.74C466.143 63.7 467.323 66.36 467.323 69.72C467.323 71.84 466.823 73.66 465.823 75.18C464.823 76.7 463.483 77.86 461.803 78.66C460.123 79.46 458.243 79.86 456.163 79.86L456.463 78.6C458.703 78.6 460.723 79.08 462.523 80.04C464.363 81 465.823 82.36 466.903 84.12C467.983 85.84 468.523 87.88 468.523 90.24C468.523 92.6 467.963 94.68 466.843 96.48C465.763 98.24 464.223 99.6 462.223 100.56C460.263 101.52 457.943 102 455.263 102H441.943ZM434.383 102V58.8H443.623V102H434.383ZM470.323 102L485.803 58.8H493.723L479.503 102H470.323ZM502.003 102L487.843 58.8H496.123L511.603 102H502.003ZM478.483 85.26H502.723V92.46H478.483V85.26ZM522.861 102V95.4H534.021C536.021 95.4 537.521 94.86 538.521 93.78C539.561 92.66 540.081 91.12 540.081 89.16C540.081 87.16 539.521 85.58 538.401 84.42C537.321 83.26 535.761 82.68 533.721 82.68H522.861V76.08H533.241C535.121 76.08 536.541 75.64 537.501 74.76C538.501 73.84 539.001 72.5 539.001 70.74C539.001 68.98 538.521 67.66 537.561 66.78C536.641 65.86 535.261 65.4 533.421 65.4H522.861V58.8H535.401C539.241 58.8 542.341 59.78 544.701 61.74C547.061 63.7 548.241 66.36 548.241 69.72C548.241 71.84 547.741 73.66 546.741 75.18C545.741 76.7 544.401 77.86 542.721 78.66C541.041 79.46 539.161 79.86 537.081 79.86L537.381 78.6C539.621 78.6 541.641 79.08 543.441 80.04C545.281 81 546.741 82.36 547.821 84.12C548.901 85.84 549.441 87.88 549.441 90.24C549.441 92.6 548.881 94.68 547.761 96.48C546.681 98.24 545.141 99.6 543.141 100.56C541.181 101.52 538.861 102 536.181 102H522.861ZM515.301 102V58.8H524.541V102H515.301ZM554.266 102V58.8H563.506V102H554.266ZM569.501 102V58.8H578.741V102H569.501ZM573.821 102V94.92H599.501V102H573.821ZM604.891 102V58.8H614.131V102H604.891ZM632.666 102V65.88H618.566V58.8H656.006V65.88H641.906V102H632.666ZM674.178 102V84.54L658.098 58.8H669.198L681.918 81.66H676.698L689.358 58.8H699.498L683.418 84.54V102H674.178ZM390.088 175V168.4H401.248C403.248 168.4 404.748 167.86 405.748 166.78C406.788 165.66 407.308 164.12 407.308 162.16C407.308 160.16 406.748 158.58 405.628 157.42C404.548 156.26 402.988 155.68 400.948 155.68H390.088V149.08H400.468C402.348 149.08 403.768 148.64 404.728 147.76C405.728 146.84 406.228 145.5 406.228 143.74C406.228 141.98 405.748 140.66 404.788 139.78C403.868 138.86 402.488 138.4 400.648 138.4H390.088V131.8H402.628C406.468 131.8 409.568 132.78 411.928 134.74C414.288 136.7 415.468 139.36 415.468 142.72C415.468 144.84 414.968 146.66 413.968 148.18C412.968 149.7 411.628 150.86 409.948 151.66C408.268 152.46 406.388 152.86 404.308 152.86L404.608 151.6C406.848 151.6 408.868 152.08 410.668 153.04C412.508 154 413.968 155.36 415.048 157.12C416.128 158.84 416.668 160.88 416.668 163.24C416.668 165.6 416.108 167.68 414.988 169.48C413.908 171.24 412.368 172.6 410.368 173.56C408.408 174.52 406.088 175 403.408 175H390.088ZM382.528 175V131.8H391.768V175H382.528ZM442.14 175.6C438.94 175.6 435.98 175.06 433.26 173.98C430.58 172.9 428.24 171.38 426.24 169.42C424.28 167.42 422.74 165.06 421.62 162.34C420.54 159.58 420 156.54 420 153.22C420 148.82 420.94 144.98 422.82 141.7C424.7 138.38 427.3 135.8 430.62 133.96C433.98 132.12 437.8 131.2 442.08 131.2C446.44 131.2 450.28 132.12 453.6 133.96C456.92 135.8 459.52 138.38 461.4 141.7C463.32 145.02 464.28 148.88 464.28 153.28C464.28 156.56 463.72 159.58 462.6 162.34C461.52 165.06 459.98 167.42 457.98 169.42C456.02 171.38 453.68 172.9 450.96 173.98C448.28 175.06 445.34 175.6 442.14 175.6ZM442.08 168.28C444.6 168.28 446.82 167.64 448.74 166.36C450.66 165.08 452.16 163.32 453.24 161.08C454.36 158.8 454.92 156.16 454.92 153.16C454.92 150.2 454.38 147.62 453.3 145.42C452.22 143.22 450.72 141.52 448.8 140.32C446.88 139.12 444.64 138.52 442.08 138.52C439.56 138.52 437.34 139.12 435.42 140.32C433.5 141.52 432 143.22 430.92 145.42C429.88 147.58 429.36 150.16 429.36 153.16C429.36 156.2 429.9 158.86 430.98 161.14C432.06 163.38 433.56 165.14 435.48 166.42C437.4 167.66 439.6 168.28 442.08 168.28ZM469.071 175V131.8H483.471L495.471 173.44H490.251L502.251 131.8H516.711V175H507.591V134.38H509.151L497.451 175H487.911L476.331 134.74H477.831V175H469.071ZM530.244 175V168.4H541.404C543.404 168.4 544.904 167.86 545.904 166.78C546.944 165.66 547.464 164.12 547.464 162.16C547.464 160.16 546.904 158.58 545.784 157.42C544.704 156.26 543.144 155.68 541.104 155.68H530.244V149.08H540.624C542.504 149.08 543.924 148.64 544.884 147.76C545.884 146.84 546.384 145.5 546.384 143.74C546.384 141.98 545.904 140.66 544.944 139.78C544.024 138.86 542.644 138.4 540.804 138.4H530.244V131.8H542.784C546.624 131.8 549.724 132.78 552.084 134.74C554.444 136.7 555.624 139.36 555.624 142.72C555.624 144.84 555.124 146.66 554.124 148.18C553.124 149.7 551.784 150.86 550.104 151.66C548.424 152.46 546.544 152.86 544.464 152.86L544.764 151.6C547.004 151.6 549.024 152.08 550.824 153.04C552.664 154 554.124 155.36 555.204 157.12C556.284 158.84 556.824 160.88 556.824 163.24C556.824 165.6 556.264 167.68 555.144 169.48C554.064 171.24 552.524 172.6 550.524 173.56C548.564 174.52 546.244 175 543.564 175H530.244ZM522.684 175V131.8H531.924V175H522.684ZM561.649 175V131.8H570.889V175H561.649ZM565.969 175V167.92H593.809V175H565.969ZM565.969 156.4V149.44H591.709V156.4H565.969ZM565.969 138.88V131.8H593.089V138.88H565.969ZM598.557 175V131.8H617.877C620.997 131.8 623.717 132.34 626.037 133.42C628.357 134.46 630.157 135.94 631.437 137.86C632.717 139.78 633.357 142.02 633.357 144.58C633.357 147.1 632.717 149.32 631.437 151.24C630.157 153.12 628.357 154.6 626.037 155.68C623.717 156.72 620.997 157.24 617.877 157.24H605.877V150.46H617.637C619.837 150.46 621.517 149.96 622.677 148.96C623.877 147.92 624.477 146.48 624.477 144.64C624.477 142.76 623.897 141.34 622.737 140.38C621.577 139.38 619.877 138.88 617.637 138.88H607.797V175H598.557ZM622.917 175L605.577 152.56H615.357L635.397 175H622.917Z" fill="white"/>
</svg>