<svg width="273" height="218" viewBox="0 0 273 218" fill="none" xmlns="http://www.w3.org/2000/svg">
<circle cx="132.5" cy="140.273" r="77.5" fill="white"/>
<rect x="154.425" y="46.7103" width="49" height="26" rx="2" transform="rotate(29.1471 154.425 46.7103)" fill="white"/>
<path d="M175.184 62.8672L185 52.3721C188 49.2404 207 37.7404 222 42.2404C232.5 45.3903 235.31 49.9759 235.5 52.372L250 38.7729L235.403 52.0319M222 66.773L235.403 52.0319M235.403 52.0319L245.5 62.8672" stroke="white" stroke-width="13"/>
<mask id="path-4-inside-1_3_72" fill="white">
<path d="M38.8315 207.437C27.8528 201.116 18.591 192.2 11.8568 181.47C5.12267 170.74 1.12152 158.523 0.20368 145.888C-0.714162 133.253 1.47928 120.586 6.59199 108.995C11.7047 97.4044 19.5808 87.2437 29.5307 79.4026L40.1886 92.9269C32.4493 99.0259 26.3232 106.929 22.3464 115.944C18.3697 124.96 16.6636 134.813 17.3775 144.64C18.0914 154.468 21.2036 163.971 26.4415 172.317C31.6795 180.663 38.8835 187.598 47.4229 192.514L38.8315 207.437Z"/>
</mask>
<path d="M38.8315 207.437C27.8528 201.116 18.591 192.2 11.8568 181.47C5.12267 170.74 1.12152 158.523 0.20368 145.888C-0.714162 133.253 1.47928 120.586 6.59199 108.995C11.7047 97.4044 19.5808 87.2437 29.5307 79.4026L40.1886 92.9269C32.4493 99.0259 26.3232 106.929 22.3464 115.944C18.3697 124.96 16.6636 134.813 17.3775 144.64C18.0914 154.468 21.2036 163.971 26.4415 172.317C31.6795 180.663 38.8835 187.598 47.4229 192.514L38.8315 207.437Z" fill="#D9D9D9" stroke="white" stroke-width="36" mask="url(#path-4-inside-1_3_72)"/>
<mask id="path-5-inside-2_3_72" fill="white">
<path d="M233.591 76.7728C244.57 83.0936 253.832 92.0093 260.566 102.739C267.3 113.47 271.301 125.687 272.219 138.322C273.137 150.957 270.944 163.624 265.831 175.215C260.718 186.805 252.842 196.966 242.892 204.807L232.234 191.283C239.974 185.184 246.1 177.281 250.077 168.265C254.053 159.25 255.759 149.397 255.045 139.569C254.332 129.742 251.219 120.239 245.981 111.893C240.743 103.547 233.539 96.6118 225 91.6954L233.591 76.7728Z"/>
</mask>
<path d="M233.591 76.7728C244.57 83.0936 253.832 92.0093 260.566 102.739C267.3 113.47 271.301 125.687 272.219 138.322C273.137 150.957 270.944 163.624 265.831 175.215C260.718 186.805 252.842 196.966 242.892 204.807L232.234 191.283C239.974 185.184 246.1 177.281 250.077 168.265C254.053 159.25 255.759 149.397 255.045 139.569C254.332 129.742 251.219 120.239 245.981 111.893C240.743 103.547 233.539 96.6118 225 91.6954L233.591 76.7728Z" fill="white"/>
<path d="M233.591 76.7728L242.573 61.1735L226.973 52.1924L217.992 67.7918L233.591 76.7728ZM242.892 204.807L228.755 215.948L239.896 230.086L254.034 218.945L242.892 204.807ZM232.234 191.283L221.093 177.145L206.956 188.287L218.097 202.424L232.234 191.283ZM225 91.6954L209.401 82.7143L200.42 98.3137L216.019 107.295L225 91.6954ZM233.591 76.7728L224.61 92.3722C233.039 97.225 240.15 104.07 245.32 112.308L260.566 102.739L275.812 93.171C267.514 79.9487 256.101 68.9623 242.573 61.1735L233.591 76.7728ZM260.566 102.739L245.32 112.308C250.49 120.546 253.562 129.925 254.267 139.626L272.219 138.322L290.172 137.018C289.041 121.448 284.111 106.393 275.812 93.171L260.566 102.739ZM272.219 138.322L254.267 139.626C254.971 149.326 253.287 159.051 249.362 167.95L265.831 175.215L282.3 182.479C288.6 168.196 291.303 152.587 290.172 137.018L272.219 138.322ZM265.831 175.215L249.362 167.95C245.437 176.849 239.39 184.65 231.751 190.669L242.892 204.807L254.034 218.945C266.294 209.282 276 196.762 282.3 182.479L265.831 175.215ZM242.892 204.807L257.03 193.666L246.372 180.142L232.234 191.283L218.097 202.424L228.755 215.948L242.892 204.807ZM232.234 191.283L243.376 205.42C253.426 197.5 261.381 187.237 266.545 175.53L250.077 168.265L233.608 161.001C230.818 167.324 226.521 172.867 221.093 177.145L232.234 191.283ZM250.077 168.265L266.545 175.53C271.71 163.822 273.925 151.027 272.998 138.265L255.045 139.569L237.093 140.873C237.594 147.767 236.397 154.677 233.608 161.001L250.077 168.265ZM255.045 139.569L272.998 138.265C272.071 125.503 268.03 113.163 261.228 102.324L245.981 111.893L230.735 121.461C234.409 127.315 236.592 133.98 237.093 140.873L255.045 139.569ZM245.981 111.893L261.228 102.324C254.426 91.486 245.07 82.4805 233.981 76.096L225 91.6954L216.019 107.295C222.009 110.743 227.061 115.607 230.735 121.461L245.981 111.893ZM225 91.6954L240.599 100.676L249.191 85.7539L233.591 76.7728L217.992 67.7918L209.401 82.7143L225 91.6954Z" fill="white" mask="url(#path-5-inside-2_3_72)"/>
</svg>
